<svg xmlns="http://www.w3.org/2000/svg" xmlns:xlink="http://www.w3.org/1999/xlink" id="Layer_1" x="0px" y="0px" width="200px" height="117px" viewBox="0 0 200 117" xml:space="preserve">

  <!-- White background ellipse -->

  <path fill="#FFFFFF" d="M100.125,14.989c-26.225,0-50.905,5.085-69.51,14.322c-9.171,4.561-16.394,9.883-21.474,15.838 C3.742,51.488,1,58.269,1,65.293c0,7.023,2.738,13.813,8.141,20.146c5.08,5.956,12.303,11.285,21.474,15.838 c18.605,9.249,43.286,14.349,69.51,14.349c26.224,0,50.908-5.085,69.51-14.322c9.173-4.561,16.395-9.882,21.475-15.837 c5.4-6.341,8.141-13.122,8.141-20.146s-2.736-13.808-8.141-20.145c-5.08-5.956-12.302-11.285-21.475-15.839 C151.033,20.074,126.349,14.989,100.125,14.989z"/>

  <!-- Red outer ellipse border -->

  <path fill="#1a3a8f" d="M100,16.131c53.967,0,97.717,22.033,97.717,49.212s-43.75,49.218-97.717,49.218 c-53.966,0-97.716-22.033-97.716-49.217S46.034,16.131,100,16.131 M100,13.848c-26.456,0-51.356,5.206-70.124,14.66 C20.624,33.176,13.337,38.623,8.213,44.72C2.766,51.209,0,58.15,0,65.34c0,7.189,2.762,14.139,8.213,20.62 c5.124,6.097,12.411,11.552,21.663,16.212c18.768,9.467,43.668,14.688,70.124,14.688s51.355-5.205,70.124-14.659 c9.252-4.669,16.539-10.115,21.663-16.212c5.447-6.489,8.213-13.432,8.213-20.62c0-7.19-2.762-14.135-8.213-20.621 c-5.124-6.096-12.411-11.551-21.663-16.212C151.355,19.053,126.456,13.848,100,13.848z"/>

  <!-- LARGE CENTER LETTERS: C U B A -->

  <path fill="#1a3a8f" d="M34.128,73.475c-2.47-1.244-4.545-3.154-5.992-5.513c-2.869-4.952-2.869-11.061,0-16.014 c1.447-2.356,3.522-4.264,5.992-5.509c2.681-1.353,5.65-2.035,8.652-1.988c2.896-0.065,5.761,0.619,8.314,1.988 c2.313,1.264,4.135,3.265,5.178,5.684L49.5,55.761c-1.556-2.757-3.815-4.139-6.777-4.144c-2.113-0.064-4.158,0.747-5.653,2.241 c-1.494,1.494-2.241,3.529-2.241,6.104c0,2.576,0.747,4.608,2.241,6.101c1.495,1.496,3.541,2.307,5.653,2.242 c2.988,0,5.247-1.382,6.777-4.146l6.773,3.696c-1.072,2.379-2.89,4.345-5.178,5.599c-2.548,1.387-5.415,2.082-8.314,2.017 C39.777,75.518,36.808,74.832,34.128,73.475z"/>

  <path fill="#1a3a8f" d="M93.335,44.883v30.121h-8.283v-3.583c-1.142,1.293-2.557,2.315-4.144,2.995 c-1.647,0.698-3.42,1.051-5.209,1.035c-3.958,0-7.092-1.139-9.403-3.416S62.827,66.38,62.821,61.9V44.883h8.734v15.73 c0,4.854,2.035,7.281,6.104,7.279c2.091,0,3.77-0.683,5.039-2.043c1.268-1.361,1.904-3.388,1.906-6.074V44.883H93.335z"/>

  <path fill="#1a3a8f" d="M128.584,46.377c2.277,1.271,4.148,3.159,5.4,5.447c2.615,5.116,2.615,11.177,0,16.293 c-1.254,2.287-3.125,4.175-5.4,5.447c-2.336,1.303-4.971,1.973-7.645,1.944c-4.15,0-7.306-1.307-9.463-3.918v3.472h-8.342v-41.59 h8.734v14.613c2.201-2.428,5.227-3.642,9.068-3.642C123.611,44.412,126.248,45.078,128.584,46.377z M124.941,66.027 c1.436-1.51,2.154-3.533,2.156-6.072s-0.716-4.565-2.156-6.077c-3.055-3.024-7.975-3.024-11.029,0 c-1.434,1.512-2.152,3.538-2.154,6.077c-0.003,2.539,0.715,4.563,2.154,6.072C116.968,69.053,121.889,69.053,124.941,66.027z"/>

  <path fill="#1a3a8f" d="M174.016,44.883v30.121h-8.342v-3.471c-2.164,2.611-5.299,3.918-9.404,3.918 c-2.688,0.038-5.338-0.617-7.699-1.902c-2.284-1.262-4.16-3.152-5.403-5.447c-2.606-5.135-2.606-11.205,0-16.339 c1.242-2.296,3.118-4.187,5.403-5.447c2.359-1.286,5.013-1.943,7.699-1.906c3.844,0,6.849,1.214,9.012,3.642v-3.167L174.016,44.883 L174.016,44.883z M163.266,66.018c1.459-1.511,2.188-3.535,2.187-6.074c-0.002-2.539-0.729-4.564-2.187-6.076 c-1.426-1.499-3.418-2.323-5.486-2.268c-2.086-0.06-4.1,0.764-5.543,2.268c-1.455,1.512-2.184,3.538-2.184,6.076 c0,2.539,0.729,4.563,2.184,6.074c1.443,1.506,3.457,2.33,5.543,2.269c2.066,0.06,4.061-0.763,5.486-2.257V66.018L163.266,66.018z"/>

  <!-- BOTTOM RING TEXT LEFT: V I S A -->

  <path fill="#1a3a8f" d="M49.708,85.244l-2.844,6.566h-1.49l-2.832-6.566h1.642l1.969,4.688l2.027-4.688H49.708z"/>

  <path fill="#1a3a8f" d="M53.682,85.244h1.521v6.566h-1.521V85.244z"/>

  <path fill="#1a3a8f" d="M61.907,91.714c-0.419-0.112-0.814-0.299-1.167-0.552l0.537-1.148c0.306,0.221,0.645,0.389,1.004,0.498 c0.377,0.123,0.771,0.188,1.167,0.188c0.33,0.021,0.661-0.043,0.957-0.191c0.189-0.102,0.308-0.299,0.307-0.514 c0.003-0.149-0.063-0.295-0.183-0.39c-0.139-0.111-0.297-0.196-0.467-0.248c-0.19-0.063-0.451-0.129-0.778-0.207 c-0.417-0.094-0.827-0.211-1.229-0.354c-0.317-0.117-0.6-0.314-0.821-0.57c-0.24-0.299-0.362-0.675-0.342-1.056 c-0.004-0.368,0.103-0.729,0.307-1.035c0.232-0.331,0.557-0.588,0.934-0.735c0.484-0.193,1.003-0.287,1.525-0.271 c0.414,0,0.827,0.051,1.229,0.148c0.371,0.088,0.725,0.233,1.051,0.432l-0.467,1.167c-0.551-0.33-1.179-0.509-1.821-0.519 c-0.329-0.021-0.656,0.051-0.945,0.207c-0.19,0.115-0.305,0.321-0.304,0.545c-0.001,0.225,0.139,0.426,0.35,0.502 c0.348,0.144,0.708,0.252,1.078,0.322c0.417,0.096,0.828,0.215,1.229,0.357c0.315,0.118,0.599,0.313,0.82,0.564 c0.239,0.291,0.361,0.662,0.344,1.037c0.002,0.367-0.106,0.728-0.315,1.027c-0.237,0.332-0.565,0.59-0.945,0.74 c-0.486,0.191-1.006,0.285-1.529,0.271C62.916,91.934,62.402,91.859,61.907,91.714z"/>

  <path fill="#1a3a8f" d="M74.791,90.402h-3.05l-0.583,1.408h-1.556l2.925-6.566h1.502l2.938,6.566h-1.595L74.791,90.402z M74.313,89.236l-1.043-2.514l-1.042,2.514H74.313z"/>

  <!-- BOTTOM RING TEXT RIGHT: S E R V I C E S -->

  <g transform="translate(-9,0)">

  <path fill="#1a3a8f" d="M97.907,91.714c-0.419-0.112-0.814-0.299-1.167-0.552l0.537-1.148c0.306,0.221,0.645,0.389,1.004,0.498 c0.377,0.123,0.771,0.188,1.167,0.188c0.33,0.021,0.661-0.043,0.957-0.191c0.189-0.102,0.308-0.299,0.307-0.514 c0.003-0.149-0.063-0.295-0.183-0.39c-0.139-0.111-0.297-0.196-0.467-0.248c-0.19-0.063-0.451-0.129-0.778-0.207 c-0.417-0.094-0.827-0.211-1.229-0.354c-0.317-0.117-0.6-0.314-0.821-0.57c-0.24-0.299-0.362-0.675-0.342-1.056 c-0.004-0.368,0.103-0.729,0.307-1.035c0.232-0.331,0.557-0.588,0.934-0.735c0.484-0.193,1.003-0.287,1.525-0.271 c0.414,0,0.827,0.051,1.229,0.148c0.371,0.088,0.725,0.233,1.051,0.432l-0.467,1.167c-0.551-0.33-1.179-0.509-1.821-0.519 c-0.329-0.021-0.656,0.051-0.945,0.207c-0.19,0.115-0.305,0.321-0.304,0.545c-0.001,0.225,0.139,0.426,0.35,0.502 c0.348,0.144,0.708,0.252,1.078,0.322c0.417,0.096,0.828,0.215,1.229,0.357c0.315,0.118,0.599,0.313,0.82,0.564 c0.239,0.291,0.361,0.662,0.344,1.037c0.002,0.367-0.106,0.728-0.315,1.027c-0.237,0.332-0.565,0.59-0.945,0.74 c-0.486,0.191-1.006,0.285-1.529,0.271C98.916,91.934,98.402,91.859,97.907,91.714z"/>

  <path fill="#1a3a8f" d="M111.423,90.59v1.223h-5.085v-6.567h4.965v1.218h-3.455v1.428h3.047v1.168h-3.051v1.518L111.423,90.59z"/>

  <path fill="#1a3a8f" d="M119.916,91.813l-1.27-1.834h-1.396v1.834h-1.521v-6.567h2.845c0.521-0.013,1.036,0.086,1.517,0.287 c1.151,0.479,1.695,1.801,1.217,2.95c-0.229,0.551-0.666,0.988-1.217,1.218l1.475,2.11L119.916,91.813z M119.527,86.777 c-0.303-0.219-0.672-0.323-1.043-0.297h-1.237v2.289h1.237c0.371,0.026,0.742-0.078,1.043-0.302 c0.467-0.442,0.486-1.182,0.041-1.649C119.557,86.805,119.541,86.791,119.527,86.777z"/>

  <path fill="#1a3a8f" d="M132.039,85.244l-2.859,6.566h-1.502l-2.832-6.566h1.643l1.998,4.688l2.027-4.688H132.039z"/>

  <path fill="#1a3a8f" d="M135.682,85.244h1.521v6.566h-1.521V85.244z"/>

  <path fill="#1a3a8f" d="M143.186,91.488c-0.526-0.28-0.969-0.698-1.274-1.211c-0.618-1.084-0.618-2.416,0-3.5 c0.307-0.514,0.748-0.932,1.274-1.211c1.051-0.528,2.279-0.578,3.369-0.137c0.453,0.19,0.854,0.487,1.168,0.864l-0.977,0.897 c-0.404-0.498-1.014-0.784-1.654-0.777c-0.379-0.007-0.753,0.086-1.086,0.27c-0.313,0.174-0.572,0.433-0.746,0.746 c-0.359,0.682-0.359,1.497,0,2.18c0.176,0.312,0.434,0.567,0.746,0.742c0.333,0.184,0.707,0.274,1.086,0.27 c0.643,0.008,1.251-0.279,1.654-0.778l0.977,0.898c-0.313,0.381-0.715,0.681-1.168,0.876c-0.492,0.205-1.021,0.307-1.557,0.299 C144.368,91.926,143.745,91.779,143.186,91.488z"/>

  <path fill="#1a3a8f" d="M156.916,90.59v1.223h-5.09v-6.567h4.977v1.218h-3.463v1.428h3.051v1.168h-3.051v1.518L156.916,90.59z"/>

  <path fill="#1a3a8f" d="M161.859,91.714c-0.418-0.112-0.813-0.3-1.166-0.552l0.518-1.145c0.305,0.219,0.645,0.387,1.004,0.498 c0.377,0.123,0.771,0.187,1.167,0.188c0.33,0.021,0.661-0.044,0.957-0.191c0.188-0.102,0.308-0.299,0.308-0.514 c0.004-0.15-0.063-0.295-0.184-0.389c-0.138-0.112-0.297-0.197-0.467-0.25c-0.189-0.063-0.451-0.127-0.777-0.205 c-0.417-0.094-0.828-0.213-1.229-0.354c-0.316-0.118-0.601-0.315-0.82-0.571c-0.239-0.297-0.36-0.674-0.342-1.055 c-0.005-0.367,0.103-0.729,0.307-1.035c0.232-0.332,0.558-0.588,0.935-0.734c0.484-0.194,1.004-0.287,1.524-0.272 c0.414,0,0.827,0.05,1.229,0.147c0.369,0.089,0.725,0.234,1.05,0.433l-0.467,1.167c-0.552-0.33-1.179-0.509-1.82-0.518 c-0.328-0.022-0.655,0.05-0.944,0.205c-0.189,0.117-0.306,0.322-0.305,0.545c-0.001,0.226,0.139,0.427,0.352,0.503 c0.348,0.144,0.707,0.252,1.078,0.321c0.416,0.097,0.825,0.215,1.229,0.358c0.316,0.118,0.598,0.312,0.82,0.563 c0.24,0.293,0.36,0.662,0.344,1.039c0.003,0.367-0.107,0.727-0.315,1.026c-0.237,0.332-0.565,0.591-0.946,0.74 c-0.484,0.192-1.006,0.285-1.527,0.271C162.855,91.934,162.35,91.857,161.859,91.714z"/>

  </g>

  <!-- Registered trademark symbol -->

  <path fill="#1a3a8f" d="M187.779,81.805c0.018,2.73-2.184,4.959-4.914,4.977s-4.958-2.184-4.975-4.913 c-0.019-2.731,2.182-4.959,4.912-4.978c0.022,0,0.045,0,0.065,0c2.661-0.05,4.86,2.067,4.909,4.729 C187.781,81.682,187.781,81.743,187.779,81.805z M186.83,81.805c-0.043-2.199-1.861-3.947-4.061-3.904 c-2.201,0.043-3.949,1.86-3.906,4.062c0.043,2.16,1.799,3.894,3.96,3.905c2.188,0.023,3.983-1.73,4.008-3.92 C186.832,81.898,186.832,81.852,186.83,81.805z M184.426,82.73l1.168,1.836h-1.455l-1.022-1.557h-0.97v1.557h-1.455V79.12h2.365 c1.486,0,2.369,0.755,2.369,1.944C185.463,81.771,185.068,82.432,184.426,82.73z M182.982,81.891c0.658,0,1.039-0.312,1.039-0.841 c0-0.528-0.39-0.856-1.039-0.856h-0.824v1.697H182.982z"/>

</svg>